PathFileType	4	(X/Y/Z)	C:/Users/opensim2020/Desktop/walking_exp_matlab/subject03_walking09_straight_04.trc	
DataRate	CameraRate	NumFrames	NumMarkers	Units	OrigDataRate	OrigDataStartFrame	OrigNumFrames	
100.00	100.00	7	47	mm	100.00	3877	353	
Frame#	Time	LFHD			RFHD			LBHD			RBHD			C7			T10			CLAV			STRN			RBAK			LSHO			LUPA			LELB			LFRM			LWRA			LWRB			LFIN			RSHO			RUPA			RELB			RFRM			RWRA			RWRB			RFIN			LASI			RASI			LPSI			RPSI			LTHI			LKNE			LTIB			LANK			LHEE			LTOE			RTHI			RKNE			RTIB			RANK			RHEE			RTOE			*39			*40			*41			*42			*43			*44			*45			*46			
		X1	Y1	Z1	X2	Y2	Z2	X3	Y3	Z3	X4	Y4	Z4	X5	Y5	Z5	X6	Y6	Z6	X7	Y7	Z7	X8	Y8	Z8	X9	Y9	Z9	X10	Y10	Z10	X11	Y11	Z11	X12	Y12	Z12	X13	Y13	Z13	X14	Y14	Z14	X15	Y15	Z15	X16	Y16	Z16	X17	Y17	Z17	X18	Y18	Z18	X19	Y19	Z19	X20	Y20	Z20	X21	Y21	Z21	X22	Y22	Z22	X23	Y23	Z23	X24	Y24	Z24	X25	Y25	Z25	X26	Y26	Z26	X27	Y27	Z27	X28	Y28	Z28	X29	Y29	Z29	X30	Y30	Z30	X31	Y31	Z31	X32	Y32	Z32	X33	Y33	Z33	X34	Y34	Z34	X35	Y35	Z35	X36	Y36	Z36	X37	Y37	Z37	X38	Y38	Z38	X39	Y39	Z39	X40	Y40	Z40	X41	Y41	Z41	X42	Y42	Z42	X43	Y43	Z43	X44	Y44	Z44	X45	Y45	Z45	X46	Y46	Z46	X47	Y47	Z47	

133	1.320	1492.50317	497.18668	1616.16760	1360.31396	498.37350	1624.73071	1485.54797	620.95526	1560.82166	1355.62927	616.90271	1569.52124	1418.44067	642.54321	1413.11829	1413.40686	688.79272	1102.59900	1426.37122	523.46246	1331.90491	1430.61707	489.23584	1164.58569	1312.89868	694.28796	1244.17542	1579.14343	580.37897	1368.40625	1645.08081	628.95367	1174.11316	1659.40417	642.21252	1052.09570	1663.68042	622.58966	923.67310	1637.61487	599.38239	806.51447	1680.30798	634.92719	810.89819	1674.71985	617.77991	728.51105	1264.93555	553.04321	1360.21484	1186.65320	514.49377	1145.37805	1173.49487	475.03220	1040.10461	1172.32336	427.01349	911.90851	1211.10999	380.42493	825.50690	1163.38184	403.49829	814.73083	1174.12646	364.06201	752.75098	1537.05066	527.07422	936.26715	1298.78113	525.20209	933.65497	1486.63672	689.63947	952.75256	1337.12598	685.09943	966.68402	1589.28455	520.61993	636.04547	1545.37854	453.19168	472.92993	1552.94421	440.82498	283.19879	1526.06970	384.43088	79.44827	1484.24194	410.47739	34.92294	1508.35486	230.07339	74.52377	1265.03442	613.91034	643.79926	1301.84290	633.54645	465.40964	1302.60022	716.92914	290.62576	1355.68982	784.33191	84.36745	1407.54504	831.37085	58.71342	1369.56970	647.00714	35.64169	1439.15881	584.15735	1668.73730																					 
134	1.330	1493.61658	489.40179	1615.30566	1361.42969	490.61090	1624.00671	1486.64551	613.01117	1559.95813	1356.84680	609.16486	1568.85400	1419.72388	634.81671	1412.42163	1414.78247	681.38202	1101.95264	1427.19946	515.84338	1331.10095	1431.15637	481.87762	1163.66956	1314.28503	687.03729	1243.61133	1580.25854	572.30096	1367.54541	1645.58923	621.29895	1173.17798	1659.33032	634.88141	1050.93835	1663.44995	616.16071	922.52722	1637.05725	593.45374	805.30865	1679.63867	629.12183	809.74872	1673.68091	612.58649	727.22321	1265.88855	545.83911	1359.39148	1187.81702	507.21991	1144.64453	1174.76160	467.67569	1039.39954	1173.77271	419.13437	911.40161	1212.74341	372.04529	825.40131	1165.15759	395.23410	814.28607	1176.06934	355.22058	752.53040	1537.67188	519.11487	935.36584	1299.22644	518.44800	933.02087	1488.07202	681.91589	951.84229	1338.55676	678.27783	965.91339	1589.30957	513.96802	634.57959	1544.60107	447.17905	471.46960	1552.52161	431.84174	282.68045	1525.61340	371.01633	79.25621	1484.69861	397.46301	34.92302	1509.02454	217.25005	77.33629	1265.58643	607.97205	643.49310	1301.80396	628.52765	465.09351	1302.55090	713.78925	291.05099	1355.27649	783.69098	85.51511	1407.09338	831.01819	60.34214	1369.44434	646.82965	35.55348	1444.66443	577.55664	1670.47498																					 
135	1.340	1494.79150	481.45035	1614.50452	1362.55127	482.80994	1623.30969	1487.77808	605.04352	1559.14172	1357.97693	601.35486	1568.20642	1420.96069	627.11560	1411.75684	1416.29395	673.85608	1101.32361	1428.06726	508.03030	1330.36951	1431.74011	474.27600	1162.84497	1315.61304	679.84131	1243.03601	1581.37451	564.05823	1366.73376	1646.20728	613.36768	1172.27051	1659.45801	627.44763	1049.99255	1663.22168	609.49957	921.43433	1636.52734	587.34113	804.17212	1679.09387	623.07562	808.67249	1672.71057	607.16602	725.97931	1266.90320	538.63159	1358.70862	1189.01978	500.17270	1143.94458	1176.11719	460.50677	1038.64587	1175.33020	411.54019	910.84186	1214.50061	363.99780	825.22394	1166.97742	387.32071	813.78778	1177.91870	347.22467	752.36310	1538.23901	510.98306	934.48877	1299.71057	511.50940	932.39398	1489.70850	674.19427	951.12396	1340.10608	671.22412	965.22864	1588.99585	506.84406	633.33850	1544.05591	440.46936	470.28745	1552.47021	423.68613	282.11044	1525.57935	360.82501	78.81558	1484.82910	386.33560	34.02419	1509.44556	206.75804	78.86098	1266.02612	602.03491	643.20728	1301.81433	623.32227	464.80649	1302.38452	710.53314	291.57501	1354.79700	783.04877	86.84224	1406.54407	830.62964	62.09368	1369.32324	646.61035	35.47243	1445.98853	569.66241	1669.68555																					 
136	1.350	1495.96667	473.49319	1613.75146	1363.72925	474.96188	1622.67932	1489.00354	597.09174	1558.44739	1359.17993	593.51172	1567.62756	1422.47339	619.39014	1411.29272	1417.93018	666.22131	1100.70190	1428.96008	500.25409	1329.67273	1432.46753	466.42551	1162.22229	1317.19360	672.44269	1242.44836	1582.56006	555.72437	1366.00195	1646.90857	605.29108	1171.42993	1659.82886	619.93750	1049.14551	1663.10364	602.55231	920.39423	1636.01941	580.98523	803.08142	1678.60596	616.81000	807.68713	1671.79688	601.54059	724.79871	1267.97986	531.36633	1358.07593	1190.32703	493.13528	1143.17395	1177.44995	453.55411	1037.90125	1176.97656	404.13806	910.31891	1216.06348	356.04395	824.88245	1168.84741	379.73117	813.26294	1179.88208	339.39120	751.95496	1538.86755	502.76581	933.64374	1300.28040	504.45825	931.83960	1491.39856	666.13464	950.63470	1341.70264	663.94379	964.57477	1588.96167	499.26147	632.34583	1543.84424	433.19199	469.36310	1552.34766	416.10165	281.38364	1525.45996	353.09543	78.29530	1484.65039	378.34912	33.14358	1509.28284	198.78352	78.68958	1266.14771	596.01300	642.96405	1301.86365	617.89850	464.57034	1302.24158	707.06952	292.14182	1354.23779	782.26733	88.07877	1406.00403	830.21021	64.01858	1369.16431	646.40662	35.39418	1447.79114	561.71631	1668.63953																					 
137	1.360	1497.15576	465.51047	1613.08362	1364.89697	467.10004	1622.16370	1490.28113	589.07715	1557.84656	1360.49866	585.63641	1567.13904	1423.83276	611.41736	1410.60107	1419.68896	658.39026	1100.14233	1429.97656	492.34323	1329.05566	1433.18237	458.62869	1161.57922	1318.76807	665.04462	1241.80090	1583.79761	547.32422	1365.33289	1647.69128	597.04999	1170.70337	1660.09558	611.91821	1048.28503	1663.02722	595.34564	919.46960	1635.59485	574.46942	802.06598	1678.24268	610.24170	806.73883	1670.98889	595.68500	723.72772	1269.07104	524.13184	1357.50525	1191.70361	486.17416	1142.52026	1178.82739	446.82504	1037.16797	1178.60132	397.20499	909.65192	1217.96875	348.81128	824.60730	1170.79980	372.51581	812.67889	1181.97144	331.59241	751.68787	1539.52307	494.38422	932.86591	1300.76514	497.22272	931.31940	1492.98926	657.92297	950.07843	1343.33350	656.50830	964.02740	1589.40698	491.12836	631.55981	1543.93335	425.52942	468.69012	1552.50061	409.08600	280.46558	1525.04346	347.69247	76.96480	1484.27551	373.49899	32.16026	1508.55811	193.31792	76.76159	1266.19556	589.93890	642.80389	1301.83728	612.28790	464.24612	1302.13257	703.53809	292.78070	1353.71912	781.35522	89.56712	1405.46887	829.69397	66.08043	1369.00024	646.20715	35.33615	1449.21472	553.74725	1668.12341																					 
138	1.370	1498.38391	457.43268	1612.46436	1366.11072	459.18393	1621.65088	1491.62646	581.05823	1557.33533	1361.77698	577.78430	1566.73621	1425.35132	603.51471	1410.05347	1421.37695	650.35651	1099.55945	1430.95715	484.36050	1328.51917	1433.98938	450.64362	1161.02478	1320.62952	657.46448	1241.25793	1585.16663	538.56714	1364.98853	1648.57141	588.49585	1169.93811	1660.66565	603.80511	1047.55298	1663.09009	587.86774	918.55939	1635.19482	567.71484	801.10327	1677.97107	603.36096	805.81653	1670.25049	589.55878	722.69318	1270.19836	516.85303	1356.95007	1193.16650	479.30258	1141.84595	1180.29016	440.19733	1036.43970	1180.25220	390.42935	908.97778	1219.76599	341.69324	824.09540	1172.83276	365.62997	812.01788	1184.05200	324.48975	751.16309	1540.19604	485.78748	932.10168	1301.61670	489.89209	930.79358	1494.56946	649.56049	949.68030	1344.85535	648.85529	963.50464	1589.67468	482.60580	631.23273	1544.36011	417.52765	468.11386	1552.61487	403.12741	279.21362	1524.85559	344.53195	75.24931	1483.78101	370.80371	30.76298	1507.24133	190.08438	73.23148	1266.60217	583.60187	642.50830	1301.88464	606.40680	463.94720	1301.98450	699.80115	293.36746	1353.42310	780.46838	91.15081	1405.03503	829.11823	68.36742	1368.84961	645.98102	35.23670	1450.05811	545.62677	1667.98242																					 
139	1.380	1499.61523	449.33249	1611.89819	1367.37402	451.23492	1621.16833	1493.02283	573.01874	1556.92969	1363.14990	569.90302	1566.40649	1426.85828	595.57190	1409.50000	1423.07275	642.21777	1099.01599	1431.99182	476.29492	1328.07410	1434.77844	442.48459	1160.57874	1322.49585	649.92078	1240.71594	1586.47729	529.92596	1364.44653	1649.53613	579.80255	1169.27112	1661.10547	595.27155	1046.78271	1663.18372	580.06451	917.67487	1634.83875	560.71375	800.13837	1677.78186	596.16162	804.96729	1669.57751	583.07764	721.71515	1271.39026	509.58072	1356.44373	1194.62732	472.56335	1141.14734	1181.83826	433.71997	1035.68091	1182.00305	383.85510	908.26666	1221.49121	334.58884	823.69849	1174.88892	359.01492	811.25824	1186.10754	317.75351	750.46948	1540.95935	476.94891	931.48126	1302.19580	482.25473	930.27728	1496.11780	641.02649	949.41949	1346.46948	641.04230	963.09131	1590.05286	474.04446	630.93146	1544.86707	409.52408	467.44308	1552.65735	398.06320	277.72049	1524.07178	342.97522	73.03828	1483.44714	370.40808	29.19054	1505.33801	188.75888	68.24049	1267.15222	577.00891	642.20502	1301.93457	600.32684	463.66498	1301.97729	695.88708	294.04916	1353.06897	779.31531	92.78108	1404.45142	828.30377	70.81908	1368.71545	645.75507	35.16458	1451.36597	537.46057	1667.54150																					 
